{
  "accessors": [
    {
      "bufferView": 2,
      "componentType": 5126,
      "count": 65532,
      "max": [
        9.9827213287353516,
        31.705438613891602,
        1.5718070268630981
      ],
      "min": [
        -16.412206649780273,
        -0.71678197383880615,
        -2.7729690074920654
      ],
      "type": "VEC3"
    },
    {
      "bufferView": 2,
      "byteOffset": 786384,
      "componentType": 5126,
      "count": 65532,
      "max": [
        0.99995756149291992,
        0.99925434589385986,
        0.99999916553497314
      ],
      "min": [
        -0.99997121095657349,
        -0.999927818775177,
        -0.99920260906219482
      ],
      "type": "VEC3"
    },
    {
      "bufferView": 3,
      "componentType": 5126,
      "count": 65532,
      "max": [
        0.75294101238250732,
        0.75294101238250732,
        0.75294101238250732,
        1
      ],
      "min": [
        0.75294101238250732,
        0.75294101238250732,
        0.75294101238250732,
        1
      ],
      "type": "VEC4"
    },
    {
      "bufferView": 1,
      "componentType": 5126,
      "count": 65532,
      "max": [
        0.98501098155975342,
        0.98393797874450684
      ],
      "min": [
        0.091554999351501465,
        0.10563600063323975
      ],
      "type": "VEC2"
    },
    {
      "bufferView": 0,
      "componentType": 5125,
      "count": 159984,
      "max": [
        65531
      ],
      "min": [
        0
      ],
      "type": "SCALAR"
    },
    {
      "bufferView": 2,
      "byteOffset": 1572768,
      "componentType": 5126,
      "count": 65532,
      "max": [
        6.3837652206420898,
        31.106094360351562,
        1.0690820217132568
      ],
      "min": [
        -2.2665889263153076,
        11.962738037109375,
        -2.2355051040649414
      ],
      "type": "VEC3"
    },
    {
      "bufferView": 2,
      "byteOffset": 2359152,
      "componentType": 5126,
      "count": 65532,
      "max": [
        0.99991768598556519,
        0.99976420402526855,
        0.99999964237213135
      ],
      "min": [
        -0.9999849796295166,
        -0.99997419118881226,
        -0.98106241226196289
      ],
      "type": "VEC3"
    },
    {
      "bufferView": 3,
      "byteOffset": 1048512,
      "componentType": 5126,
      "count": 65532,
      "max": [
        0.75294101238250732,
        0.75294101238250732,
        0.75294101238250732,
        1
      ],
      "min": [
        0.75294101238250732,
        0.75294101238250732,
        0.75294101238250732,
        1
      ],
      "type": "VEC4"
    },
    {
      "bufferView": 1,
      "byteOffset": 524256,
      "componentType": 5126,
      "count": 65532,
      "max": [
        0.83646100759506226,
        0.97184300422668457
      ],
      "min": [
        0.022833999246358871,
        0.20320799946784973
      ],
      "type": "VEC2"
    },
    {
      "bufferView": 0,
      "byteOffset": 639936,
      "componentType": 5125,
      "count": 164253,
      "max": [
        65531
      ],
      "min": [
        0
      ],
      "type": "SCALAR"
    },
    {
      "bufferView": 2,
      "byteOffset": 3145536,
      "componentType": 5126,
      "count": 65532,
      "max": [
        4.9243731498718262,
        30.423069000244141,
        1.087797999382019
      ],
      "min": [
        -6.7568721771240234,
        17.662033081054688,
        -1.0786010026931763
      ],
      "type": "VEC3"
    },
    {
      "bufferView": 2,
      "byteOffset": 3931920,
      "componentType": 5126,
      "count": 65532,
      "max": [
        0.99999856948852539,
        0.99984681606292725,
        0.99999982118606567
      ],
      "min": [
        -0.99998801946640015,
        -0.99999195337295532,
        -0.99852085113525391
      ],
      "type": "VEC3"
    },
    {
      "bufferView": 3,
      "byteOffset": 2097024,
      "componentType": 5126,
      "count": 65532,
      "max": [
        0.75294101238250732,
        0.75294101238250732,
        0.75294101238250732,
        1
      ],
      "min": [
        0.75294101238250732,
        0.75294101238250732,
        0.75294101238250732,
        1
      ],
      "type": "VEC4"
    },
    {
      "bufferView": 1,
      "byteOffset": 1048512,
      "componentType": 5126,
      "count": 65532,
      "max": [
        0.98394697904586792,
        0.94081997871398926
      ],
      "min": [
        0.012101000174880028,
        0.10753499716520309
      ],
      "type": "VEC2"
    },
    {
      "bufferView": 0,
      "byteOffset": 1296948,
      "componentType": 5125,
      "count": 167421,
      "max": [
        65531
      ],
      "min": [
        0
      ],
      "type": "SCALAR"
    },
    {
      "bufferView": 2,
      "byteOffset": 4718304,
      "componentType": 5126,
      "count": 65532,
      "max": [
        11.944730758666992,
        30.512168884277344,
        0.91920101642608643
      ],
      "min": [
        -8.1828060150146484,
        -0.39599499106407166,
        -2.8309910297393799
      ],
      "type": "VEC3"
    },
    {
      "bufferView": 2,
      "byteOffset": 5504688,
      "componentType": 5126,
      "count": 65532,
      "max": [
        0.99998670816421509,
        0.99999535083770752,
        0.99999839067459106
      ],
      "min": [
        -0.9999961256980896,
        -0.99999475479125977,
        -0.99938404560089111
      ],
      "type": "VEC3"
    },
    {
      "bufferView": 3,
      "byteOffset": 3145536,
      "componentType": 5126,
      "count": 65532,
      "max": [
        0.75294101238250732,
        0.75294101238250732,
        0.75294101238250732,
        1
      ],
      "min": [
        0.75294101238250732,
        0.75294101238250732,
        0.75294101238250732,
        1
      ],
      "type": "VEC4"
    },
    {
      "bufferView": 1,
      "byteOffset": 1572768,
      "componentType": 5126,
      "count": 65532,
      "max": [
        0.98598402738571167,
        0.99424898624420166
      ],
      "min": [
        0.02691200003027916,
        0.10597000271081924
      ],
      "type": "VEC2"
    },
    {
      "bufferView": 0,
      "byteOffset": 1966632,
      "componentType": 5125,
      "count": 169926,
      "max": [
        65531
      ],
      "min": [
        0
      ],
      "type": "SCALAR"
    },
    {
      "bufferView": 2,
      "byteOffset": 6291072,
      "componentType": 5126,
      "count": 65533,
      "max": [
        11.921718597412109,
        10.56391716003418,
        -1.1105329990386963
      ],
      "min": [
        1.5854079723358154,
        -1.2747819423675537,
        -3.265084981918335
      ],
      "type": "VEC3"
    },
    {
      "bufferView": 2,
      "byteOffset": 7077468,
      "componentType": 5126,
      "count": 65533,
      "max": [
        0.99999713897705078,
        0.99976658821105957,
        0.99999970197677612
      ],
      "min": [
        -0.99998611211776733,
        -0.99998337030410767,
        -0.99545902013778687
      ],
      "type": "VEC3"
    },
    {
      "bufferView": 3,
      "byteOffset": 4194048,
      "componentType": 5126,
      "count": 65533,
      "max": [
        0.75294101238250732,
        0.75294101238250732,
        0.75294101238250732,
        1
      ],
      "min": [
        0.75294101238250732,
        0.75294101238250732,
        0.75294101238250732,
        1
      ],
      "type": "VEC4"
    },
    {
      "bufferView": 1,
      "byteOffset": 2097024,
      "componentType": 5126,
      "count": 65533,
      "max": [
        0.99011802673339844,
        0.99603599309921265
      ],
      "min": [
        0.11409100145101547,
        0.0038099999073892832
      ],
      "type": "VEC2"
    },
    {
      "bufferView": 0,
      "byteOffset": 2646336,
      "componentType": 5125,
      "count": 161976,
      "max": [
        65532
      ],
      "min": [
        0
      ],
      "type": "SCALAR"
    },
    {
      "bufferView": 2,
      "byteOffset": 7863864,
      "componentType": 5126,
      "count": 65534,
      "max": [
        7.1296682357788086,
        15.058303833007812,
        -0.8014029860496521
      ],
      "min": [
        -4.1856279373168945,
        0.66635900735855103,
        -2.8702518939971924
      ],
      "type": "VEC3"
    },
    {
      "bufferView": 2,
      "byteOffset": 8650272,
      "componentType": 5126,
      "count": 65534,
      "max": [
        0.99999755620956421,
        0.99998557567596436,
        0.99999982118606567
      ],
      "min": [
        -0.99999916553497314,
        -0.9999803900718689,
        -0.99598991870880127
      ],
      "type": "VEC3"
    },
    {
      "bufferView": 3,
      "byteOffset": 5242576,
      "componentType": 5126,
      "count": 65534,
      "max": [
        0.75294101238250732,
        0.75294101238250732,
        0.75294101238250732,
        1
      ],
      "min": [
        0.75294101238250732,
        0.75294101238250732,
        0.75294101238250732,
        1
      ],
      "type": "VEC4"
    },
    {
      "bufferView": 1,
      "byteOffset": 2621288,
      "componentType": 5126,
      "count": 65534,
      "max": [
        0.98994201421737671,
        0.99404597282409668
      ],
      "min": [
        0.011700999923050404,
        0.019161999225616455
      ],
      "type": "VEC2"
    },
    {
      "bufferView": 0,
      "byteOffset": 3294240,
      "componentType": 5125,
      "count": 168735,
      "max": [
        65533
      ],
      "min": [
        0
      ],
      "type": "SCALAR"
    },
    {
      "bufferView": 2,
      "byteOffset": 9436680,
      "componentType": 5126,
      "count": 65532,
      "max": [
        3.9072690010070801,
        10.663751602172852,
        -1.2490080595016479
      ],
      "min": [
        -8.6941127777099609,
        -1.2784450054168701,
        -2.959575891494751
      ],
      "type": "VEC3"
    },
    {
      "bufferView": 2,
      "byteOffset": 10223064,
      "componentType": 5126,
      "count": 65532,
      "max": [
        0.9999697208404541,
        0.99999630451202393,
        0.99999988079071045
      ],
      "min": [
        -0.99999719858169556,
        -0.99999433755874634,
        -0.99994480609893799
      ],
      "type": "VEC3"
    },
    {
      "bufferView": 3,
      "byteOffset": 6291120,
      "componentType": 5126,
      "count": 65532,
      "max": [
        0.75294101238250732,
        0.75294101238250732,
        0.75294101238250732,
        1
      ],
      "min": [
        0.75294101238250732,
        0.75294101238250732,
        0.75294101238250732,
        1
      ],
      "type": "VEC4"
    },
    {
      "bufferView": 1,
      "byteOffset": 3145560,
      "componentType": 5126,
      "count": 65532,
      "max": [
        0.88474202156066895,
        0.99436300992965698
      ],
      "min": [
        0.011113000102341175,
        0.061269998550415039
      ],
      "type": "VEC2"
    },
    {
      "bufferView": 0,
      "byteOffset": 3969180,
      "componentType": 5125,
      "count": 170685,
      "max": [
        65531
      ],
      "min": [
        0
      ],
      "type": "SCALAR"
    },
    {
      "bufferView": 2,
      "byteOffset": 11009448,
      "componentType": 5126,
      "count": 65533,
      "max": [
        -1.2706650495529175,
        20.387716293334961,
        -0.16466400027275085
      ],
      "min": [
        -14.380356788635254,
        -1.2715859413146973,
        -2.8968939781188965
      ],
      "type": "VEC3"
    },
    {
      "bufferView": 2,
      "byteOffset": 11795844,
      "componentType": 5126,
      "count": 65533,
      "max": [
        0.99998968839645386,
        0.99999630451202393,
        0.99999982118606567
      ],
      "min": [
        -0.99999910593032837,
        -0.99999737739562988,
        -0.99959999322891235
      ],
      "type": "VEC3"
    },
    {
      "bufferView": 3,
      "byteOffset": 7339632,
      "componentType": 5126,
      "count": 65533,
      "max": [
        0.75294101238250732,
        0.75294101238250732,
        0.75294101238250732,
        1
      ],
      "min": [
        0.75294101238250732,
        0.75294101238250732,
        0.75294101238250732,
        1
      ],
      "type": "VEC4"
    },
    {
      "bufferView": 1,
      "byteOffset": 3669816,
      "componentType": 5126,
      "count": 65533,
      "max": [
        0.97349900007247925,
        0.99462401866912842
      ],
      "min": [
        0.028224000707268715,
        0.023997999727725983
      ],
      "type": "VEC2"
    },
    {
      "bufferView": 0,
      "byteOffset": 4651920,
      "componentType": 5125,
      "count": 168063,
      "max": [
        65532
      ],
      "min": [
        0
      ],
      "type": "SCALAR"
    },
    {
      "bufferView": 2,
      "byteOffset": 12582240,
      "componentType": 5126,
      "count": 65532,
      "max": [
        12.008518218994141,
        31.721796035766602,
        1.6868300437927246
      ],
      "min": [
        -11.156745910644531,
        4.4488329887390137,
        -2.802361011505127
      ],
      "type": "VEC3"
    },
    {
      "bufferView": 2,
      "byteOffset": 13368624,
      "componentType": 5126,
      "count": 65532,
      "max": [
        0.99999713897705078,
        0.99370896816253662,
        0.99999910593032837
      ],
      "min": [
        -0.9999992847442627,
        -0.9999314546585083,
        -0.99819517135620117
      ],
      "type": "VEC3"
    },
    {
      "bufferView": 3,
      "byteOffset": 8388160,
      "componentType": 5126,
      "count": 65532,
      "max": [
        0.75294101238250732,
        0.75294101238250732,
        0.75294101238250732,
        1
      ],
      "min": [
        0.75294101238250732,
        0.75294101238250732,
        0.75294101238250732,
        1
      ],
      "type": "VEC4"
    },
    {
      "bufferView": 1,
      "byteOffset": 4194080,
      "componentType": 5126,
      "count": 65532,
      "max": [
        0.88863497972488403,
        0.99306398630142212
      ],
      "min": [
        0.011947999708354473,
        0.0038280000444501638
      ],
      "type": "VEC2"
    },
    {
      "bufferView": 0,
      "byteOffset": 5324172,
      "componentType": 5125,
      "count": 183411,
      "max": [
        65531
      ],
      "min": [
        0
      ],
      "type": "SCALAR"
    },
    {
      "bufferView": 2,
      "byteOffset": 14155008,
      "componentType": 5126,
      "count": 65532,
      "max": [
        2.1428720951080322,
        31.724292755126953,
        2.2604160308837891
      ],
      "min": [
        -9.9248437881469727,
        15.63089656829834,
        -0.73652499914169312
      ],
      "type": "VEC3"
    },
    {
      "bufferView": 2,
      "byteOffset": 14941392,
      "componentType": 5126,
      "count": 65532,
      "max": [
        0.99999451637268066,
        0.99996262788772583,
        0.99999839067459106
      ],
      "min": [
        -0.99999392032623291,
        -0.99999475479125977,
        -0.99954980611801147
      ],
      "type": "VEC3"
    },
    {
      "bufferView": 3,
      "byteOffset": 9436672,
      "componentType": 5126,
      "count": 65532,
      "max": [
        0.75294101238250732,
        0.75294101238250732,
        0.75294101238250732,
        1
      ],
      "min": [
        0.75294101238250732,
        0.75294101238250732,
        0.75294101238250732,
        1
      ],
      "type": "VEC4"
    },
    {
      "bufferView": 1,
      "byteOffset": 4718336,
      "componentType": 5126,
      "count": 65532,
      "max": [
        0.98566001653671265,
        0.99567800760269165
      ],
      "min": [
        0.012186000123620033,
        0.10976599901914597
      ],
      "type": "VEC2"
    },
    {
      "bufferView": 0,
      "byteOffset": 6057816,
      "componentType": 5125,
      "count": 159387,
      "max": [
        65531
      ],
      "min": [
        0
      ],
      "type": "SCALAR"
    },
    {
      "bufferView": 2,
      "byteOffset": 15727776,
      "componentType": 5126,
      "count": 65532,
      "max": [
        -6.8314609527587891,
        31.715538024902344,
        1.9141390323638916
      ],
      "min": [
        -16.433156967163086,
        20.893306732177734,
        -0.205035001039505
      ],
      "type": "VEC3"
    },
    {
      "bufferView": 2,
      "byteOffset": 16514160,
      "componentType": 5126,
      "count": 65532,
      "max": [
        0.99997037649154663,
        0.99989879131317139,
        0.99999982118606567
      ],
      "min": [
        -0.9997323751449585,
        -0.99993181228637695,
        -0.98763924837112427
      ],
      "type": "VEC3"
    },
    {
      "bufferView": 3,
      "byteOffset": 10485184,
      "componentType": 5126,
      "count": 65532,
      "max": [
        0.75294101238250732,
        0.75294101238250732,
        0.75294101238250732,
        1
      ],
      "min": [
        0.75294101238250732,
        0.75294101238250732,
        0.75294101238250732,
        1
      ],
      "type": "VEC4"
    },
    {
      "bufferView": 1,
      "byteOffset": 5242592,
      "componentType": 5126,
      "count": 65532,
      "max": [
        0.9821779727935791,
        0.99633198976516724
      ],
      "min": [
        0.0096640000119805336,
        0.11908199638128281
      ],
      "type": "VEC2"
    },
    {
      "bufferView": 0,
      "byteOffset": 6695364,
      "componentType": 5125,
      "count": 155112,
      "max": [
        65531
      ],
      "min": [
        0
      ],
      "type": "SCALAR"
    },
    {
      "bufferView": 2,
      "byteOffset": 17300544,
      "componentType": 5126,
      "count": 65533,
      "max": [
        12.009612083435059,
        28.496212005615234,
        1.5341620445251465
      ],
      "min": [
        -16.449010848999023,
        -0.39941799640655518,
        -2.2727649211883545
      ],
      "type": "VEC3"
    },
    {
      "bufferView": 2,
      "byteOffset": 18086940,
      "componentType": 5126,
      "count": 65533,
      "max": [
        0.99999773502349854,
        0.99999362230300903,
        0.99999940395355225
      ],
      "min": [
        -0.99999445676803589,
        -0.99999505281448364,
        -0.99997574090957642
      ],
      "type": "VEC3"
    },
    {
      "bufferView": 3,
      "byteOffset": 11533696,
      "componentType": 5126,
      "count": 65533,
      "max": [
        0.75294101238250732,
        0.75294101238250732,
        0.75294101238250732,
        1
      ],
      "min": [
        0.75294101238250732,
        0.75294101238250732,
        0.75294101238250732,
        1
      ],
      "type": "VEC4"
    },
    {
      "bufferView": 1,
      "byteOffset": 5766848,
      "componentType": 5126,
      "count": 65533,
      "max": [
        0.98508799076080322,
        0.99598497152328491
      ],
      "min": [
        0.016202999278903008,
        0.0055069997906684875
      ],
      "type": "VEC2"
    },
    {
      "bufferView": 0,
      "byteOffset": 7315812,
      "componentType": 5125,
      "count": 156378,
      "max": [
        65532
      ],
      "min": [
        0
      ],
      "type": "SCALAR"
    },
    {
      "bufferView": 2,
      "byteOffset": 18873336,
      "componentType": 5126,
      "count": 65532,
      "max": [
        1.4822089672088623,
        16.434078216552734,
        0.11046899855136871
      ],
      "min": [
        -11.132099151611328,
        -1.2849249839782715,
        -2.588176965713501
      ],
      "type": "VEC3"
    },
    {
      "bufferView": 2,
      "byteOffset": 19659720,
      "componentType": 5126,
      "count": 65532,
      "max": [
        0.9999995231628418,
        0.99998575448989868,
        0.99996984004974365
      ],
      "min": [
        -0.9999963641166687,
        -0.99998980760574341,
        -0.96017014980316162
      ],
      "type": "VEC3"
    },
    {
      "bufferView": 3,
      "byteOffset": 12582224,
      "componentType": 5126,
      "count": 65532,
      "max": [
        0.75294101238250732,
        0.75294101238250732,
        0.75294101238250732,
        1
      ],
      "min": [
        0.75294101238250732,
        0.75294101238250732,
        0.75294101238250732,
        1
      ],
      "type": "VEC4"
    },
    {
      "bufferView": 1,
      "byteOffset": 6291112,
      "componentType": 5126,
      "count": 65532,
      "max": [
        0.947471022605896,
        0.99532002210617065
      ],
      "min": [
        0.0097289998084306717,
        0.025256000459194183
      ],
      "type": "VEC2"
    },
    {
      "bufferView": 0,
      "byteOffset": 7941324,
      "componentType": 5125,
      "count": 161109,
      "max": [
        65531
      ],
      "min": [
        0
      ],
      "type": "SCALAR"
    },
    {
      "bufferView": 2,
      "byteOffset": 20446104,
      "componentType": 5126,
      "count": 65534,
      "max": [
        -2.2223811149597168,
        23.825613021850586,
        0.96675401926040649
      ],
      "min": [
        -15.00355339050293,
        7.1161332130432129,
        -1.7803540229797363
      ],
      "type": "VEC3"
    },
    {
      "bufferView": 2,
      "byteOffset": 21232512,
      "componentType": 5126,
      "count": 65534,
      "max": [
        0.99999499320983887,
        0.99997782707214355,
        0.99999094009399414
      ],
      "min": [
        -0.9999995231628418,
        -0.99999821186065674,
        -0.9137987494468689
      ],
      "type": "VEC3"
    },
    {
      "bufferView": 3,
      "byteOffset": 13630736,
      "componentType": 5126,
      "count": 65534,
      "max": [
        0.75294101238250732,
        0.75294101238250732,
        0.75294101238250732,
        1
      ],
      "min": [
        0.75294101238250732,
        0.75294101238250732,
        0.75294101238250732,
        1
      ],
      "type": "VEC4"
    },
    {
      "bufferView": 1,
      "byteOffset": 6815368,
      "componentType": 5126,
      "count": 65534,
      "max": [
        0.98470801115036011,
        0.99528402090072632
      ],
      "min": [
        0.010877000167965889,
        0.13076299428939819
      ],
      "type": "VEC2"
    },
    {
      "bufferView": 0,
      "byteOffset": 8585760,
      "componentType": 5125,
      "count": 164832,
      "max": [
        65533
      ],
      "min": [
        0
      ],
      "type": "SCALAR"
    },
    {
      "bufferView": 2,
      "byteOffset": 22018920,
      "componentType": 5126,
      "count": 35519,
      "max": [
        -8.4523591995239258,
        25.337818145751953,
        1.1080650091171265
      ],
      "min": [
        -16.467872619628906,
        0.70722699165344238,
        -2.3295950889587402
      ],
      "type": "VEC3"
    },
    {
      "bufferView": 2,
      "byteOffset": 22445148,
      "componentType": 5126,
      "count": 35519,
      "max": [
        0.99997740983963013,
        0.99966776371002197,
        0.99999290704727173
      ],
      "min": [
        -0.9999992847442627,
        -0.99997919797897339,
        -0.98595631122589111
      ],
      "type": "VEC3"
    },
    {
      "bufferView": 3,
      "byteOffset": 14679280,
      "componentType": 5126,
      "count": 35519,
      "max": [
        0.75294101238250732,
        0.75294101238250732,
        0.75294101238250732,
        1
      ],
      "min": [
        0.75294101238250732,
        0.75294101238250732,
        0.75294101238250732,
        1
      ],
      "type": "VEC4"
    },
    {
      "bufferView": 1,
      "byteOffset": 7339640,
      "componentType": 5126,
      "count": 35519,
      "max": [
        0.98458302021026611,
        0.99316000938415527
      ],
      "min": [
        0.013166000135242939,
        0.15345899760723114
      ],
      "type": "VEC2"
    },
    {
      "bufferView": 0,
      "byteOffset": 9245088,
      "componentType": 5125,
      "count": 88728,
      "max": [
        35518
      ],
      "min": [
        0
      ],
      "type": "SCALAR"
    }
  ],
  "asset": {
    "extras": {
      "author": "Morbase | Museu Virtual (https://sketchfab.com/carpetudo)",
      "license": "CC0-1.0 (http://creativecommons.org/publicdomain/zero/1.0/)",
      "source": "https://sketchfab.com/3d-models/adega-castelo-de-montemor-o-novo-80e8d0125f5a4bd8bc2878fe369bb5d6",
      "title": "Adega - Castelo de Montemor-o-Novo"
    },
    "generator": "Sketchfab-7.80.0",
    "version": "2.0"
  },
  "bufferViews": [
    {
      "buffer": 0,
      "byteLength": 9600000,
      "byteOffset": 0,
      "name": "floatBufferViews",
      "target": 34963
    },
    {
      "buffer": 0,
      "byteLength": 7623792,
      "byteOffset": 9600000,
      "byteStride": 8,
      "name": "floatBufferViews",
      "target": 34962
    },
    {
      "buffer": 0,
      "byteLength": 22871376,
      "byteOffset": 17223792,
      "byteStride": 12,
      "name": "floatBufferViews",
      "target": 34962
    },
    {
      "buffer": 0,
      "byteLength": 15247584,
      "byteOffset": 40095168,
      "byteStride": 16,
      "name": "floatBufferViews",
      "target": 34962
    }
  ],
  "buffers": [
    {
      "byteLength": 55342752,
      "uri": "scene.bin"
    }
  ],
  "extensionsUsed": [
    "KHR_materials_unlit"
  ],
  "images": [
    {
      "uri": "textures/material_0_baseColor.jpeg"
    }
  ],
  "materials": [
    {
      "doubleSided": true,
      "emissiveFactor": [
        0,
        0,
        0
      ],
      "extensions": {
        "KHR_materials_unlit": {}
      },
      "name": "material_0",
      "pbrMetallicRoughness": {
        "baseColorFactor": [
          1,
          1,
          1,
          1
        ],
        "baseColorTexture": {
          "index": 0,
          "texCoord": 0
        },
        "metallicFactor": 0,
        "roughnessFactor": 1
      }
    }
  ],
  "meshes": [
    {
      "primitives": [
        {
          "attributes": {
            "COLOR_0": 2,
            "NORMAL": 1,
            "POSITION": 0,
            "TEXCOORD_0": 3
          },
          "indices": 4,
          "material": 0,
          "mode": 4
        }
      ]
    },
    {
      "primitives": [
        {
          "attributes": {
            "COLOR_0": 7,
            "NORMAL": 6,
            "POSITION": 5,
            "TEXCOORD_0": 8
          },
          "indices": 9,
          "material": 0,
          "mode": 4
        }
      ]
    },
    {
      "primitives": [
        {
          "attributes": {
            "COLOR_0": 12,
            "NORMAL": 11,
            "POSITION": 10,
            "TEXCOORD_0": 13
          },
          "indices": 14,
          "material": 0,
          "mode": 4
        }
      ]
    },
    {
      "primitives": [
        {
          "attributes": {
            "COLOR_0": 17,
            "NORMAL": 16,
            "POSITION": 15,
            "TEXCOORD_0": 18
          },
          "indices": 19,
          "material": 0,
          "mode": 4
        }
      ]
    },
    {
      "primitives": [
        {
          "attributes": {
            "COLOR_0": 22,
            "NORMAL": 21,
            "POSITION": 20,
            "TEXCOORD_0": 23
          },
          "indices": 24,
          "material": 0,
          "mode": 4
        }
      ]
    },
    {
      "primitives": [
        {
          "attributes": {
            "COLOR_0": 27,
            "NORMAL": 26,
            "POSITION": 25,
            "TEXCOORD_0": 28
          },
          "indices": 29,
          "material": 0,
          "mode": 4
        }
      ]
    },
    {
      "primitives": [
        {
          "attributes": {
            "COLOR_0": 32,
            "NORMAL": 31,
            "POSITION": 30,
            "TEXCOORD_0": 33
          },
          "indices": 34,
          "material": 0,
          "mode": 4
        }
      ]
    },
    {
      "primitives": [
        {
          "attributes": {
            "COLOR_0": 37,
            "NORMAL": 36,
            "POSITION": 35,
            "TEXCOORD_0": 38
          },
          "indices": 39,
          "material": 0,
          "mode": 4
        }
      ]
    },
    {
      "primitives": [
        {
          "attributes": {
            "COLOR_0": 42,
            "NORMAL": 41,
            "POSITION": 40,
            "TEXCOORD_0": 43
          },
          "indices": 44,
          "material": 0,
          "mode": 4
        }
      ]
    },
    {
      "primitives": [
        {
          "attributes": {
            "COLOR_0": 47,
            "NORMAL": 46,
            "POSITION": 45,
            "TEXCOORD_0": 48
          },
          "indices": 49,
          "material": 0,
          "mode": 4
        }
      ]
    },
    {
      "primitives": [
        {
          "attributes": {
            "COLOR_0": 52,
            "NORMAL": 51,
            "POSITION": 50,
            "TEXCOORD_0": 53
          },
          "indices": 54,
          "material": 0,
          "mode": 4
        }
      ]
    },
    {
      "primitives": [
        {
          "attributes": {
            "COLOR_0": 57,
            "NORMAL": 56,
            "POSITION": 55,
            "TEXCOORD_0": 58
          },
          "indices": 59,
          "material": 0,
          "mode": 4
        }
      ]
    },
    {
      "primitives": [
        {
          "attributes": {
            "COLOR_0": 62,
            "NORMAL": 61,
            "POSITION": 60,
            "TEXCOORD_0": 63
          },
          "indices": 64,
          "material": 0,
          "mode": 4
        }
      ]
    },
    {
      "primitives": [
        {
          "attributes": {
            "COLOR_0": 67,
            "NORMAL": 66,
            "POSITION": 65,
            "TEXCOORD_0": 68
          },
          "indices": 69,
          "material": 0,
          "mode": 4
        }
      ]
    },
    {
      "primitives": [
        {
          "attributes": {
            "COLOR_0": 72,
            "NORMAL": 71,
            "POSITION": 70,
            "TEXCOORD_0": 73
          },
          "indices": 74,
          "material": 0,
          "mode": 4
        }
      ]
    }
  ],
  "nodes": [
    {
      "children": [
        1
      ],
      "name": "RootNode (gltf orientation matrix)",
      "rotation": [
        -0.70710678118654746,
        -0,
        -0,
        0.70710678118654757
      ]
    },
    {
      "children": [
        2
      ],
      "name": "RootNode (model correction matrix)"
    },
    {
      "children": [
        3,
        4,
        5,
        6,
        7,
        8,
        9,
        10,
        11,
        12,
        13,
        14,
        15,
        16,
        17
      ],
      "name": "09665246dc8a484ab3553c70fd4dedac.obj.cleaner"
    },
    {
      "mesh": 0,
      "name": ""
    },
    {
      "mesh": 1,
      "name": ""
    },
    {
      "mesh": 2,
      "name": ""
    },
    {
      "mesh": 3,
      "name": ""
    },
    {
      "mesh": 4,
      "name": ""
    },
    {
      "mesh": 5,
      "name": ""
    },
    {
      "mesh": 6,
      "name": ""
    },
    {
      "mesh": 7,
      "name": ""
    },
    {
      "mesh": 8,
      "name": ""
    },
    {
      "mesh": 9,
      "name": ""
    },
    {
      "mesh": 10,
      "name": ""
    },
    {
      "mesh": 11,
      "name": ""
    },
    {
      "mesh": 12,
      "name": ""
    },
    {
      "mesh": 13,
      "name": ""
    },
    {
      "mesh": 14,
      "name": ""
    }
  ],
  "samplers": [
    {
      "magFilter": 9729,
      "minFilter": 9987,
      "wrapS": 10497,
      "wrapT": 10497
    }
  ],
  "scene": 0,
  "scenes": [
    {
      "name": "OSG_Scene",
      "nodes": [
        0
      ]
    }
  ],
  "textures": [
    {
      "sampler": 0,
      "source": 0
    }
  ]
}

