{
  "accessors": [
    {
      "bufferView": 2,
      "componentType": 5126,
      "count": 65,
      "max": [
        24.279510498046875,
        23.221553802490234,
        13.079509735107422
      ],
      "min": [
        -25.411041259765625,
        -56.748374938964844,
        -7.5174980163574219
      ],
      "type": "VEC3"
    },
    {
      "bufferView": 1,
      "componentType": 5126,
      "count": 65,
      "max": [
        0,
        0
      ],
      "min": [
        0,
        0
      ],
      "type": "VEC2"
    },
    {
      "bufferView": 0,
      "componentType": 5125,
      "count": 66,
      "max": [
        64
      ],
      "min": [
        0
      ],
      "type": "SCALAR"
    },
    {
      "bufferView": 2,
      "byteOffset": 780,
      "componentType": 5126,
      "count": 65532,
      "max": [
        24.275468826293945,
        23.955892562866211,
        11.07912540435791
      ],
      "min": [
        -29.771295547485352,
        -54.500869750976562,
        -8.2578134536743164
      ],
      "type": "VEC3"
    },
    {
      "bufferView": 2,
      "byteOffset": 787164,
      "componentType": 5126,
      "count": 65532,
      "max": [
        0.99995195865631104,
        1,
        0.99999958276748657
      ],
      "min": [
        -0.99999707937240601,
        -0.99999994039535522,
        -0.99997574090957642
      ],
      "type": "VEC3"
    },
    {
      "bufferView": 1,
      "byteOffset": 520,
      "componentType": 5126,
      "count": 65532,
      "max": [
        0.99493598937988281,
        0.99594998359680176
      ],
      "min": [
        0.0097610000520944595,
        0.0038340000901371241
      ],
      "type": "VEC2"
    },
    {
      "bufferView": 0,
      "byteOffset": 264,
      "componentType": 5125,
      "count": 301488,
      "max": [
        65531
      ],
      "min": [
        0
      ],
      "type": "SCALAR"
    },
    {
      "bufferView": 2,
      "byteOffset": 1573548,
      "componentType": 5126,
      "count": 65532,
      "max": [
        22.163032531738281,
        15.721821784973145,
        11.735902786254883
      ],
      "min": [
        -23.205463409423828,
        -40.332855224609375,
        -2.9353630542755127
      ],
      "type": "VEC3"
    },
    {
      "bufferView": 2,
      "byteOffset": 2359932,
      "componentType": 5126,
      "count": 65532,
      "max": [
        1,
        0.99999988079071045,
        0.99999386072158813
      ],
      "min": [
        -0.99999904632568359,
        -0.99999886751174927,
        -0.99992203712463379
      ],
      "type": "VEC3"
    },
    {
      "bufferView": 1,
      "byteOffset": 524776,
      "componentType": 5126,
      "count": 65532,
      "max": [
        0.99196600914001465,
        0.99575001001358032
      ],
      "min": [
        0.0082019995898008347,
        0.0052299997769296169
      ],
      "type": "VEC2"
    },
    {
      "bufferView": 0,
      "byteOffset": 1206216,
      "componentType": 5125,
      "count": 314484,
      "max": [
        65531
      ],
      "min": [
        0
      ],
      "type": "SCALAR"
    },
    {
      "bufferView": 2,
      "byteOffset": 3146316,
      "componentType": 5126,
      "count": 65532,
      "max": [
        22.014671325683594,
        22.44239616394043,
        13.149457931518555
      ],
      "min": [
        -21.037143707275391,
        6.4656558036804199,
        -2.3215100765228271
      ],
      "type": "VEC3"
    },
    {
      "bufferView": 2,
      "byteOffset": 3932700,
      "componentType": 5126,
      "count": 65532,
      "max": [
        0.99999988079071045,
        0.99999642372131348,
        0.99999386072158813
      ],
      "min": [
        -0.99999964237213135,
        -1,
        -0.99995064735412598
      ],
      "type": "VEC3"
    },
    {
      "bufferView": 1,
      "byteOffset": 1049032,
      "componentType": 5126,
      "count": 65532,
      "max": [
        0.98376399278640747,
        0.96149498224258423
      ],
      "min": [
        0.1563200056552887,
        0.096159003674983978
      ],
      "type": "VEC2"
    },
    {
      "bufferView": 0,
      "byteOffset": 2464152,
      "componentType": 5125,
      "count": 335778,
      "max": [
        65531
      ],
      "min": [
        0
      ],
      "type": "SCALAR"
    },
    {
      "bufferView": 2,
      "byteOffset": 4719084,
      "componentType": 5126,
      "count": 65532,
      "max": [
        22.034217834472656,
        21.85670280456543,
        13.526399612426758
      ],
      "min": [
        -12.12794303894043,
        8.7740898132324219,
        -2.3283131122589111
      ],
      "type": "VEC3"
    },
    {
      "bufferView": 2,
      "byteOffset": 5505468,
      "componentType": 5126,
      "count": 65532,
      "max": [
        0.99999886751174927,
        0.99998956918716431,
        0.99998760223388672
      ],
      "min": [
        -0.99999982118606567,
        -0.99999946355819702,
        -0.99999099969863892
      ],
      "type": "VEC3"
    },
    {
      "bufferView": 1,
      "byteOffset": 1573288,
      "componentType": 5126,
      "count": 65532,
      "max": [
        0.93826901912689209,
        0.99595201015472412
      ],
      "min": [
        0.0078030000440776348,
        0.095275998115539551
      ],
      "type": "VEC2"
    },
    {
      "bufferView": 0,
      "byteOffset": 3807264,
      "componentType": 5125,
      "count": 334029,
      "max": [
        65531
      ],
      "min": [
        0
      ],
      "type": "SCALAR"
    },
    {
      "bufferView": 2,
      "byteOffset": 6291852,
      "componentType": 5126,
      "count": 65532,
      "max": [
        24.129352569580078,
        27.525779724121094,
        13.307407379150391
      ],
      "min": [
        -31.833423614501953,
        -56.605712890625,
        -9.0300121307373047
      ],
      "type": "VEC3"
    },
    {
      "bufferView": 2,
      "byteOffset": 7078236,
      "componentType": 5126,
      "count": 65532,
      "max": [
        0.9999997615814209,
        0.99997258186340332,
        0.99999964237213135
      ],
      "min": [
        -0.9999966025352478,
        -0.99999970197677612,
        -0.99997222423553467
      ],
      "type": "VEC3"
    },
    {
      "bufferView": 1,
      "byteOffset": 2097544,
      "componentType": 5126,
      "count": 65532,
      "max": [
        0.98406600952148438,
        0.99519598484039307
      ],
      "min": [
        0.022768000140786171,
        0.007052999921143055
      ],
      "type": "VEC2"
    },
    {
      "bufferView": 0,
      "byteOffset": 5143380,
      "componentType": 5125,
      "count": 313218,
      "max": [
        65531
      ],
      "min": [
        0
      ],
      "type": "SCALAR"
    },
    {
      "bufferView": 2,
      "byteOffset": 7864620,
      "componentType": 5126,
      "count": 65532,
      "max": [
        -2.281933069229126,
        -44.285614013671875,
        -1.513496994972229
      ],
      "min": [
        -27.801328659057617,
        -55.018455505371094,
        -7.486447811126709
      ],
      "type": "VEC3"
    },
    {
      "bufferView": 2,
      "byteOffset": 8651004,
      "componentType": 5126,
      "count": 65532,
      "max": [
        0.999472975730896,
        0.99996471405029297,
        0.99999982118606567
      ],
      "min": [
        -0.99998360872268677,
        -0.99999982118606567,
        -0.99996137619018555
      ],
      "type": "VEC3"
    },
    {
      "bufferView": 1,
      "byteOffset": 2621800,
      "componentType": 5126,
      "count": 65532,
      "max": [
        0.99194097518920898,
        0.99277597665786743
      ],
      "min": [
        0.0039699999615550041,
        0.066703997552394867
      ],
      "type": "VEC2"
    },
    {
      "bufferView": 0,
      "byteOffset": 6396252,
      "componentType": 5125,
      "count": 343665,
      "max": [
        65531
      ],
      "min": [
        0
      ],
      "type": "SCALAR"
    },
    {
      "bufferView": 2,
      "byteOffset": 9437388,
      "componentType": 5126,
      "count": 65532,
      "max": [
        14.351833343505859,
        -40.150676727294922,
        -2.1512839794158936
      ],
      "min": [
        -31.855888366699219,
        -56.095954895019531,
        -7.8583540916442871
      ],
      "type": "VEC3"
    },
    {
      "bufferView": 2,
      "byteOffset": 10223772,
      "componentType": 5126,
      "count": 65532,
      "max": [
        0.99984204769134521,
        0.9998161792755127,
        0.99999982118606567
      ],
      "min": [
        -0.99998360872268677,
        -0.99999988079071045,
        -0.99976056814193726
      ],
      "type": "VEC3"
    },
    {
      "bufferView": 1,
      "byteOffset": 3146056,
      "componentType": 5126,
      "count": 65532,
      "max": [
        0.99400001764297485,
        0.99581700563430786
      ],
      "min": [
        0.0085159996524453163,
        0.0039200000464916229
      ],
      "type": "VEC2"
    },
    {
      "bufferView": 0,
      "byteOffset": 7770912,
      "componentType": 5125,
      "count": 317952,
      "max": [
        65531
      ],
      "min": [
        0
      ],
      "type": "SCALAR"
    },
    {
      "bufferView": 2,
      "byteOffset": 11010156,
      "componentType": 5126,
      "count": 65532,
      "max": [
        14.73927116394043,
        -37.792415618896484,
        4.8142008781433105
      ],
      "min": [
        -22.142335891723633,
        -56.759712219238281,
        -9.0300159454345703
      ],
      "type": "VEC3"
    },
    {
      "bufferView": 2,
      "byteOffset": 11796540,
      "componentType": 5126,
      "count": 65532,
      "max": [
        0.99996262788772583,
        0.99999916553497314,
        0.9999997615814209
      ],
      "min": [
        -0.99999862909317017,
        -0.99999982118606567,
        -0.99966037273406982
      ],
      "type": "VEC3"
    },
    {
      "bufferView": 1,
      "byteOffset": 3670312,
      "componentType": 5126,
      "count": 65532,
      "max": [
        0.98992401361465454,
        0.99622201919555664
      ],
      "min": [
        0.021341999992728233,
        0.0037479999009519815
      ],
      "type": "VEC2"
    },
    {
      "bufferView": 0,
      "byteOffset": 9042720,
      "componentType": 5125,
      "count": 324387,
      "max": [
        65531
      ],
      "min": [
        0
      ],
      "type": "SCALAR"
    },
    {
      "bufferView": 2,
      "byteOffset": 12582924,
      "componentType": 5126,
      "count": 65532,
      "max": [
        6.8060550689697266,
        -35.9158935546875,
        4.7603030204772949
      ],
      "min": [
        -21.808080673217773,
        -46.665107727050781,
        -3.5773930549621582
      ],
      "type": "VEC3"
    },
    {
      "bufferView": 2,
      "byteOffset": 13369308,
      "componentType": 5126,
      "count": 65532,
      "max": [
        0.99998015165328979,
        0.99999988079071045,
        0.99999934434890747
      ],
      "min": [
        -0.99998956918716431,
        -0.99999982118606567,
        -0.99951082468032837
      ],
      "type": "VEC3"
    },
    {
      "bufferView": 1,
      "byteOffset": 4194568,
      "componentType": 5126,
      "count": 65532,
      "max": [
        0.99392801523208618,
        0.996055006980896
      ],
      "min": [
        0.0067529999651014805,
        0.00380500010214746
      ],
      "type": "VEC2"
    },
    {
      "bufferView": 0,
      "byteOffset": 10340268,
      "componentType": 5125,
      "count": 298107,
      "max": [
        65531
      ],
      "min": [
        0
      ],
      "type": "SCALAR"
    },
    {
      "bufferView": 2,
      "byteOffset": 14155692,
      "componentType": 5126,
      "count": 65532,
      "max": [
        19.991596221923828,
        -21.804067611694336,
        4.8864197731018066
      ],
      "min": [
        -12.374161720275879,
        -47.294784545898438,
        -5.7895970344543457
      ],
      "type": "VEC3"
    },
    {
      "bufferView": 2,
      "byteOffset": 14942076,
      "componentType": 5126,
      "count": 65532,
      "max": [
        1,
        0.99999970197677612,
        0.99999934434890747
      ],
      "min": [
        -0.99999916553497314,
        -0.99999833106994629,
        -0.99935287237167358
      ],
      "type": "VEC3"
    },
    {
      "bufferView": 1,
      "byteOffset": 4718824,
      "componentType": 5126,
      "count": 65532,
      "max": [
        0.99407702684402466,
        0.98800498247146606
      ],
      "min": [
        0.0075679998844861984,
        0.0038709999062120914
      ],
      "type": "VEC2"
    },
    {
      "bufferView": 0,
      "byteOffset": 11532696,
      "componentType": 5125,
      "count": 323718,
      "max": [
        65531
      ],
      "min": [
        0
      ],
      "type": "SCALAR"
    },
    {
      "bufferView": 2,
      "byteOffset": 15728460,
      "componentType": 5126,
      "count": 65532,
      "max": [
        24.468048095703125,
        -13.642941474914551,
        4.837975025177002
      ],
      "min": [
        -32.084869384765625,
        -55.770164489746094,
        -8.2489404678344727
      ],
      "type": "VEC3"
    },
    {
      "bufferView": 2,
      "byteOffset": 16514844,
      "componentType": 5126,
      "count": 65532,
      "max": [
        0.99999994039535522,
        0.99998784065246582,
        0.99999868869781494
      ],
      "min": [
        -0.99999946355819702,
        -0.99996829032897949,
        -0.99852514266967773
      ],
      "type": "VEC3"
    },
    {
      "bufferView": 1,
      "byteOffset": 5243080,
      "componentType": 5126,
      "count": 65532,
      "max": [
        0.99303597211837769,
        0.99436497688293457
      ],
      "min": [
        0.0067699998617172241,
        0.0049129999242722988
      ],
      "type": "VEC2"
    },
    {
      "bufferView": 0,
      "byteOffset": 12827568,
      "componentType": 5125,
      "count": 320439,
      "max": [
        65531
      ],
      "min": [
        0
      ],
      "type": "SCALAR"
    },
    {
      "bufferView": 2,
      "byteOffset": 17301228,
      "componentType": 5126,
      "count": 65532,
      "max": [
        24.372936248779297,
        -1.446632981300354,
        4.1617178916931152
      ],
      "min": [
        -31.912797927856445,
        -54.572227478027344,
        -6.2043437957763672
      ],
      "type": "VEC3"
    },
    {
      "bufferView": 2,
      "byteOffset": 18087612,
      "componentType": 5126,
      "count": 65532,
      "max": [
        0.99983793497085571,
        0.99999576807022095,
        0.99999964237213135
      ],
      "min": [
        -0.9999995231628418,
        -0.99999839067459106,
        -0.99996709823608398
      ],
      "type": "VEC3"
    },
    {
      "bufferView": 1,
      "byteOffset": 5767336,
      "componentType": 5126,
      "count": 65532,
      "max": [
        0.99540698528289795,
        0.9957510232925415
      ],
      "min": [
        0.0067969998344779015,
        0.0040040002204477787
      ],
      "type": "VEC2"
    },
    {
      "bufferView": 0,
      "byteOffset": 14109324,
      "componentType": 5125,
      "count": 317517,
      "max": [
        65531
      ],
      "min": [
        0
      ],
      "type": "SCALAR"
    },
    {
      "bufferView": 2,
      "byteOffset": 18873996,
      "componentType": 5126,
      "count": 65532,
      "max": [
        24.392288208007812,
        20.125986099243164,
        5.284855842590332
      ],
      "min": [
        -23.211109161376953,
        -9.4147071838378906,
        -2.5110909938812256
      ],
      "type": "VEC3"
    },
    {
      "bufferView": 2,
      "byteOffset": 19660380,
      "componentType": 5126,
      "count": 65532,
      "max": [
        0.99999982118606567,
        0.99883943796157837,
        0.9999995231628418
      ],
      "min": [
        -0.9998665452003479,
        -0.99999725818634033,
        -0.99998956918716431
      ],
      "type": "VEC3"
    },
    {
      "bufferView": 1,
      "byteOffset": 6291592,
      "componentType": 5126,
      "count": 65532,
      "max": [
        0.99458998441696167,
        0.99551898241043091
      ],
      "min": [
        0.006630999967455864,
        0.04785199835896492
      ],
      "type": "VEC2"
    },
    {
      "bufferView": 0,
      "byteOffset": 15379392,
      "componentType": 5125,
      "count": 323076,
      "max": [
        65531
      ],
      "min": [
        0
      ],
      "type": "SCALAR"
    },
    {
      "bufferView": 2,
      "byteOffset": 20446764,
      "componentType": 5126,
      "count": 65532,
      "max": [
        18.250030517578125,
        19.548044204711914,
        4.6404671669006348
      ],
      "min": [
        -21.470903396606445,
        6.4994029998779297,
        -2.2608640193939209
      ],
      "type": "VEC3"
    },
    {
      "bufferView": 2,
      "byteOffset": 21233148,
      "componentType": 5126,
      "count": 65532,
      "max": [
        0.99999827146530151,
        0.99927330017089844,
        0.99999964237213135
      ],
      "min": [
        -0.99999725818634033,
        -0.99999988079071045,
        -0.99971967935562134
      ],
      "type": "VEC3"
    },
    {
      "bufferView": 1,
      "byteOffset": 6815848,
      "componentType": 5126,
      "count": 65532,
      "max": [
        0.99503898620605469,
        0.99584698677062988
      ],
      "min": [
        0.010311000049114227,
        0.14455400407314301
      ],
      "type": "VEC2"
    },
    {
      "bufferView": 0,
      "byteOffset": 16671696,
      "componentType": 5125,
      "count": 324393,
      "max": [
        65531
      ],
      "min": [
        0
      ],
      "type": "SCALAR"
    },
    {
      "bufferView": 2,
      "byteOffset": 22019532,
      "componentType": 5126,
      "count": 65532,
      "max": [
        21.182229995727539,
        17.899770736694336,
        5.0677461624145508
      ],
      "min": [
        3.3536291122436523,
        4.1422100067138672,
        -2.5270419120788574
      ],
      "type": "VEC3"
    },
    {
      "bufferView": 2,
      "byteOffset": 22805916,
      "componentType": 5126,
      "count": 65532,
      "max": [
        0.99999958276748657,
        0.99999815225601196,
        0.99999970197677612
      ],
      "min": [
        -0.99999958276748657,
        -0.99999958276748657,
        -0.99999797344207764
      ],
      "type": "VEC3"
    },
    {
      "bufferView": 1,
      "byteOffset": 7340104,
      "componentType": 5126,
      "count": 65532,
      "max": [
        0.96072399616241455,
        0.94988399744033813
      ],
      "min": [
        0.0099959997460246086,
        0.099293999373912811
      ],
      "type": "VEC2"
    },
    {
      "bufferView": 0,
      "byteOffset": 17969268,
      "componentType": 5125,
      "count": 317733,
      "max": [
        65531
      ],
      "min": [
        0
      ],
      "type": "SCALAR"
    },
    {
      "bufferView": 2,
      "byteOffset": 23592300,
      "componentType": 5126,
      "count": 65532,
      "max": [
        22.204196929931641,
        19.281414031982422,
        5.2585182189941406
      ],
      "min": [
        -0.45699998736381531,
        5.9162111282348633,
        -2.9080750942230225
      ],
      "type": "VEC3"
    },
    {
      "bufferView": 2,
      "byteOffset": 24378684,
      "componentType": 5126,
      "count": 65532,
      "max": [
        0.99999958276748657,
        0.99999773502349854,
        0.99999982118606567
      ],
      "min": [
        -0.99999982118606567,
        -0.99999505281448364,
        -0.99920362234115601
      ],
      "type": "VEC3"
    },
    {
      "bufferView": 1,
      "byteOffset": 7864360,
      "componentType": 5126,
      "count": 65532,
      "max": [
        0.99478000402450562,
        0.99613600969314575
      ],
      "min": [
        0.019383000209927559,
        0.060015000402927399
      ],
      "type": "VEC2"
    },
    {
      "bufferView": 0,
      "byteOffset": 19240200,
      "componentType": 5125,
      "count": 295461,
      "max": [
        65531
      ],
      "min": [
        0
      ],
      "type": "SCALAR"
    },
    {
      "bufferView": 2,
      "byteOffset": 25165068,
      "componentType": 5126,
      "count": 65532,
      "max": [
        24.272895812988281,
        21.906587600708008,
        5.0615530014038086
      ],
      "min": [
        5.1342921257019043,
        9.3785209655761719,
        -2.9850409030914307
      ],
      "type": "VEC3"
    },
    {
      "bufferView": 2,
      "byteOffset": 25951452,
      "componentType": 5126,
      "count": 65532,
      "max": [
        0.99999988079071045,
        0.99999409914016724,
        0.99999970197677612
      ],
      "min": [
        -0.99999934434890747,
        -0.99999940395355225,
        -0.99998831748962402
      ],
      "type": "VEC3"
    },
    {
      "bufferView": 1,
      "byteOffset": 8388616,
      "componentType": 5126,
      "count": 65532,
      "max": [
        0.99449998140335083,
        0.99528098106384277
      ],
      "min": [
        0.0097209997475147247,
        0.081641003489494324
      ],
      "type": "VEC2"
    },
    {
      "bufferView": 0,
      "byteOffset": 20422044,
      "componentType": 5125,
      "count": 315651,
      "max": [
        65531
      ],
      "min": [
        0
      ],
      "type": "SCALAR"
    },
    {
      "bufferView": 2,
      "byteOffset": 26737836,
      "componentType": 5126,
      "count": 65532,
      "max": [
        17.826648712158203,
        21.75752067565918,
        4.8496379852294922
      ],
      "min": [
        -12.0076904296875,
        10.292133331298828,
        -2.9687860012054443
      ],
      "type": "VEC3"
    },
    {
      "bufferView": 2,
      "byteOffset": 27524220,
      "componentType": 5126,
      "count": 65532,
      "max": [
        0.99999958276748657,
        0.99999463558197021,
        0.99999964237213135
      ],
      "min": [
        -0.99999934434890747,
        -0.99999803304672241,
        -0.99996089935302734
      ],
      "type": "VEC3"
    },
    {
      "bufferView": 1,
      "byteOffset": 8912872,
      "componentType": 5126,
      "count": 65532,
      "max": [
        0.99549198150634766,
        0.99446099996566772
      ],
      "min": [
        0.012276999652385712,
        0.12260700017213821
      ],
      "type": "VEC2"
    },
    {
      "bufferView": 0,
      "byteOffset": 21684648,
      "componentType": 5125,
      "count": 294240,
      "max": [
        65531
      ],
      "min": [
        0
      ],
      "type": "SCALAR"
    },
    {
      "bufferView": 2,
      "byteOffset": 28310604,
      "componentType": 5126,
      "count": 58276,
      "max": [
        24.305568695068359,
        26.594146728515625,
        5.3080530166625977
      ],
      "min": [
        -23.213140487670898,
        10.277914047241211,
        -2.7840540409088135
      ],
      "type": "VEC3"
    },
    {
      "bufferView": 2,
      "byteOffset": 29009916,
      "componentType": 5126,
      "count": 58276,
      "max": [
        0.99999946355819702,
        0.99983733892440796,
        0.99999874830245972
      ],
      "min": [
        -0.99999862909317017,
        -0.99999600648880005,
        -0.99972474575042725
      ],
      "type": "VEC3"
    },
    {
      "bufferView": 1,
      "byteOffset": 9437128,
      "componentType": 5126,
      "count": 58276,
      "max": [
        0.99337899684906006,
        0.99404299259185791
      ],
      "min": [
        0.0088740000501275063,
        0.056207001209259033
      ],
      "type": "VEC2"
    },
    {
      "bufferView": 0,
      "byteOffset": 22861608,
      "componentType": 5125,
      "count": 271572,
      "max": [
        58275
      ],
      "min": [
        0
      ],
      "type": "SCALAR"
    }
  ],
  "asset": {
    "extras": {
      "author": "Morbase | Museu Virtual (https://sketchfab.com/carpetudo)",
      "license": "CC0-1.0 (http://creativecommons.org/publicdomain/zero/1.0/)",
      "source": "https://sketchfab.com/3d-models/igreja-de-santa-maria-do-bispo-f85c44dc40bd4eb29545f3ce2f32ce01",
      "title": "Igreja de Santa Maria do Bispo"
    },
    "generator": "Sketchfab-7.80.0",
    "version": "2.0"
  },
  "bufferViews": [
    {
      "buffer": 0,
      "byteLength": 23947896,
      "byteOffset": 0,
      "name": "floatBufferViews",
      "target": 34963
    },
    {
      "buffer": 0,
      "byteLength": 9903336,
      "byteOffset": 23947896,
      "byteStride": 8,
      "name": "floatBufferViews",
      "target": 34962
    },
    {
      "buffer": 0,
      "byteLength": 29709228,
      "byteOffset": 33851232,
      "byteStride": 12,
      "name": "floatBufferViews",
      "target": 34962
    }
  ],
  "buffers": [
    {
      "byteLength": 63560460,
      "uri": "scene.bin"
    }
  ],
  "extensionsUsed": [
    "KHR_materials_unlit"
  ],
  "images": [
    {
      "uri": "textures/4_mix_baseColor.jpeg"
    }
  ],
  "materials": [
    {
      "doubleSided": true,
      "emissiveFactor": [
        0,
        0,
        0
      ],
      "extensions": {
        "KHR_materials_unlit": {}
      },
      "name": "4_mix",
      "pbrMetallicRoughness": {
        "baseColorFactor": [
          1,
          1,
          1,
          1
        ],
        "baseColorTexture": {
          "index": 0,
          "texCoord": 0
        },
        "metallicFactor": 0,
        "roughnessFactor": 1
      }
    }
  ],
  "meshes": [
    {
      "primitives": [
        {
          "attributes": {
            "POSITION": 0,
            "TEXCOORD_0": 1
          },
          "indices": 2,
          "material": 0,
          "mode": 1
        }
      ]
    },
    {
      "primitives": [
        {
          "attributes": {
            "NORMAL": 4,
            "POSITION": 3,
            "TEXCOORD_0": 5
          },
          "indices": 6,
          "material": 0,
          "mode": 4
        }
      ]
    },
    {
      "primitives": [
        {
          "attributes": {
            "NORMAL": 8,
            "POSITION": 7,
            "TEXCOORD_0": 9
          },
          "indices": 10,
          "material": 0,
          "mode": 4
        }
      ]
    },
    {
      "primitives": [
        {
          "attributes": {
            "NORMAL": 12,
            "POSITION": 11,
            "TEXCOORD_0": 13
          },
          "indices": 14,
          "material": 0,
          "mode": 4
        }
      ]
    },
    {
      "primitives": [
        {
          "attributes": {
            "NORMAL": 16,
            "POSITION": 15,
            "TEXCOORD_0": 17
          },
          "indices": 18,
          "material": 0,
          "mode": 4
        }
      ]
    },
    {
      "primitives": [
        {
          "attributes": {
            "NORMAL": 20,
            "POSITION": 19,
            "TEXCOORD_0": 21
          },
          "indices": 22,
          "material": 0,
          "mode": 4
        }
      ]
    },
    {
      "primitives": [
        {
          "attributes": {
            "NORMAL": 24,
            "POSITION": 23,
            "TEXCOORD_0": 25
          },
          "indices": 26,
          "material": 0,
          "mode": 4
        }
      ]
    },
    {
      "primitives": [
        {
          "attributes": {
            "NORMAL": 28,
            "POSITION": 27,
            "TEXCOORD_0": 29
          },
          "indices": 30,
          "material": 0,
          "mode": 4
        }
      ]
    },
    {
      "primitives": [
        {
          "attributes": {
            "NORMAL": 32,
            "POSITION": 31,
            "TEXCOORD_0": 33
          },
          "indices": 34,
          "material": 0,
          "mode": 4
        }
      ]
    },
    {
      "primitives": [
        {
          "attributes": {
            "NORMAL": 36,
            "POSITION": 35,
            "TEXCOORD_0": 37
          },
          "indices": 38,
          "material": 0,
          "mode": 4
        }
      ]
    },
    {
      "primitives": [
        {
          "attributes": {
            "NORMAL": 40,
            "POSITION": 39,
            "TEXCOORD_0": 41
          },
          "indices": 42,
          "material": 0,
          "mode": 4
        }
      ]
    },
    {
      "primitives": [
        {
          "attributes": {
            "NORMAL": 44,
            "POSITION": 43,
            "TEXCOORD_0": 45
          },
          "indices": 46,
          "material": 0,
          "mode": 4
        }
      ]
    },
    {
      "primitives": [
        {
          "attributes": {
            "NORMAL": 48,
            "POSITION": 47,
            "TEXCOORD_0": 49
          },
          "indices": 50,
          "material": 0,
          "mode": 4
        }
      ]
    },
    {
      "primitives": [
        {
          "attributes": {
            "NORMAL": 52,
            "POSITION": 51,
            "TEXCOORD_0": 53
          },
          "indices": 54,
          "material": 0,
          "mode": 4
        }
      ]
    },
    {
      "primitives": [
        {
          "attributes": {
            "NORMAL": 56,
            "POSITION": 55,
            "TEXCOORD_0": 57
          },
          "indices": 58,
          "material": 0,
          "mode": 4
        }
      ]
    },
    {
      "primitives": [
        {
          "attributes": {
            "NORMAL": 60,
            "POSITION": 59,
            "TEXCOORD_0": 61
          },
          "indices": 62,
          "material": 0,
          "mode": 4
        }
      ]
    },
    {
      "primitives": [
        {
          "attributes": {
            "NORMAL": 64,
            "POSITION": 63,
            "TEXCOORD_0": 65
          },
          "indices": 66,
          "material": 0,
          "mode": 4
        }
      ]
    },
    {
      "primitives": [
        {
          "attributes": {
            "NORMAL": 68,
            "POSITION": 67,
            "TEXCOORD_0": 69
          },
          "indices": 70,
          "material": 0,
          "mode": 4
        }
      ]
    },
    {
      "primitives": [
        {
          "attributes": {
            "NORMAL": 72,
            "POSITION": 71,
            "TEXCOORD_0": 73
          },
          "indices": 74,
          "material": 0,
          "mode": 4
        }
      ]
    },
    {
      "primitives": [
        {
          "attributes": {
            "NORMAL": 76,
            "POSITION": 75,
            "TEXCOORD_0": 77
          },
          "indices": 78,
          "material": 0,
          "mode": 4
        }
      ]
    }
  ],
  "nodes": [
    {
      "children": [
        1
      ],
      "name": "RootNode (gltf orientation matrix)",
      "rotation": [
        -0.70710678118654746,
        -0,
        -0,
        0.70710678118654757
      ]
    },
    {
      "children": [
        2
      ],
      "name": "RootNode (model correction matrix)"
    },
    {
      "children": [
        3,
        4,
        5,
        6,
        7,
        8,
        9,
        10,
        11,
        12,
        13,
        14,
        15,
        16,
        17,
        18,
        19,
        20,
        21,
        22
      ],
      "name": "4_mixcleanfixed.obj.cleaner"
    },
    {
      "mesh": 0,
      "name": ""
    },
    {
      "mesh": 1,
      "name": ""
    },
    {
      "mesh": 2,
      "name": ""
    },
    {
      "mesh": 3,
      "name": ""
    },
    {
      "mesh": 4,
      "name": ""
    },
    {
      "mesh": 5,
      "name": ""
    },
    {
      "mesh": 6,
      "name": ""
    },
    {
      "mesh": 7,
      "name": ""
    },
    {
      "mesh": 8,
      "name": ""
    },
    {
      "mesh": 9,
      "name": ""
    },
    {
      "mesh": 10,
      "name": ""
    },
    {
      "mesh": 11,
      "name": ""
    },
    {
      "mesh": 12,
      "name": ""
    },
    {
      "mesh": 13,
      "name": ""
    },
    {
      "mesh": 14,
      "name": ""
    },
    {
      "mesh": 15,
      "name": ""
    },
    {
      "mesh": 16,
      "name": ""
    },
    {
      "mesh": 17,
      "name": ""
    },
    {
      "mesh": 18,
      "name": ""
    },
    {
      "mesh": 19,
      "name": ""
    }
  ],
  "samplers": [
    {
      "magFilter": 9729,
      "minFilter": 9987,
      "wrapS": 10497,
      "wrapT": 10497
    }
  ],
  "scene": 0,
  "scenes": [
    {
      "name": "OSG_Scene",
      "nodes": [
        0
      ]
    }
  ],
  "textures": [
    {
      "sampler": 0,
      "source": 0
    }
  ]
}

